<?xml version="1.0" encoding="utf-8"?>
<!-- Generator: Adobe Illustrator 19.0.1, SVG Export Plug-In . SVG Version: 6.00 Build 0)  -->
<svg version="1.1" id="Слой_1" xmlns="http://www.w3.org/2000/svg" xmlns:xlink="http://www.w3.org/1999/xlink" x="0px" y="0px"
	 viewBox="0 0 45.2 45.2" style="enable-background:new 0 0 45.2 45.2;" xml:space="preserve">
<g>
	<path d="M22.6,0C10.1,0,0,10.1,0,22.6c0,12.5,10.1,22.6,22.6,22.6c12.5,0,22.6-10.1,22.6-22.6C45.2,10.1,35.1,0,22.6,0L22.6,0z
		 M22.6,43.7C11,43.7,1.5,34.2,1.5,22.6C1.5,11,11,1.5,22.6,1.5c11.6,0,21.1,9.5,21.1,21.1C43.7,34.2,34.2,43.7,22.6,43.7L22.6,43.7
		z M22.6,43.7"/>
	<path d="M23.4,19.6V12c0-0.4-0.3-0.8-0.8-0.8c-0.4,0-0.8,0.3-0.8,0.8v7.6c-1.1,0.3-1.9,1.1-2.2,2.2h-5.4c-0.4,0-0.8,0.3-0.8,0.8
		c0,0.4,0.3,0.8,0.8,0.8h5.4c0.3,1.3,1.5,2.3,2.9,2.3c1.7,0,3-1.4,3-3C25.6,21.1,24.6,19.9,23.4,19.6L23.4,19.6z M22.6,24
		c-0.8,0-1.5-0.7-1.5-1.5c0-0.8,0.7-1.5,1.5-1.5c0.8,0,1.5,0.7,1.5,1.5C24.1,23.3,23.4,24,22.6,24L22.6,24z M22.6,24"/>
	<path d="M22.6,7.4c0.4,0,0.8-0.3,0.8-0.8V5.9c0-0.4-0.3-0.8-0.8-0.8c-0.4,0-0.8,0.3-0.8,0.8v0.8C21.8,7.1,22.2,7.4,22.6,7.4
		L22.6,7.4z M22.6,7.4"/>
	<path d="M22.6,37.6c-0.4,0-0.8,0.3-0.8,0.8v0.8c0,0.4,0.3,0.8,0.8,0.8c0.4,0,0.8-0.3,0.8-0.8v-0.8C23.4,37.9,23,37.6,22.6,37.6
		L22.6,37.6z M22.6,37.6"/>
	<path d="M39.2,21.8h-0.8c-0.4,0-0.8,0.3-0.8,0.8c0,0.4,0.3,0.8,0.8,0.8h0.8c0.4,0,0.7-0.3,0.7-0.8C39.9,22.1,39.6,21.8,39.2,21.8
		L39.2,21.8z M39.2,21.8"/>
	<path d="M6.8,21.8H6c-0.4,0-0.7,0.3-0.7,0.8c0,0.4,0.3,0.8,0.7,0.8h0.8c0.4,0,0.8-0.3,0.8-0.8C7.5,22.1,7.2,21.8,6.8,21.8L6.8,21.8
		z M6.8,21.8"/>
	<path d="M33.8,10.3l-0.5,0.5c-0.3,0.3-0.3,0.8,0,1.1c0.1,0.1,0.3,0.2,0.5,0.2c0.2,0,0.4-0.1,0.5-0.2l0.5-0.5c0.3-0.3,0.3-0.8,0-1.1
		C34.6,10,34.1,10,33.8,10.3L33.8,10.3z M33.8,10.3"/>
	<path d="M10.9,33.2l-0.5,0.5c-0.3,0.3-0.3,0.8,0,1.1c0.1,0.1,0.3,0.2,0.5,0.2c0.2,0,0.4-0.1,0.5-0.2l0.5-0.5c0.3-0.3,0.3-0.8,0-1.1
		C11.7,32.9,11.2,32.9,10.9,33.2L10.9,33.2z M10.9,33.2"/>
	<path d="M34.3,33.2c-0.3-0.3-0.8-0.3-1.1,0c-0.3,0.3-0.3,0.8,0,1.1l0.5,0.5c0.1,0.1,0.3,0.2,0.5,0.2c0.2,0,0.4-0.1,0.5-0.2
		c0.3-0.3,0.3-0.8,0-1.1L34.3,33.2z M34.3,33.2"/>
	<path d="M11.4,10.3c-0.3-0.3-0.8-0.3-1.1,0c-0.3,0.3-0.3,0.8,0,1.1l0.5,0.5c0.1,0.1,0.3,0.2,0.5,0.2c0.2,0,0.4-0.1,0.5-0.2
		c0.3-0.3,0.3-0.8,0-1.1L11.4,10.3z M11.4,10.3"/>
</g>
</svg>
