<?xml version="1.0" encoding="utf-8"?>
<!-- Generator: Adobe Illustrator 19.0.1, SVG Export Plug-In . SVG Version: 6.00 Build 0)  -->
<svg version="1.1" id="Слой_1" xmlns="http://www.w3.org/2000/svg" xmlns:xlink="http://www.w3.org/1999/xlink" x="0px" y="0px"
	 viewBox="0 0 46 45.2" style="enable-background:new 0 0 46 45.2;" xml:space="preserve">
<g>
	<path d="M34,3.2C33.6,1.4,32,0,30.1,0c-0.4,0-0.8,0.4-0.8,0.8c0,0.4,0.4,0.8,0.8,0.8c1.3,0,2.4,1.1,2.4,2.4s-1.1,2.4-2.4,2.4
		c-0.4,0-0.8,0.4-0.8,0.8c0,0.4,0.4,0.8,0.8,0.8c1.9,0,3.5-1.4,3.9-3.2h10.4v7.1H1.6V4.8h13.5c0.4,0,0.8-0.4,0.8-0.8
		c0-0.4-0.4-0.8-0.8-0.8h-1.4c0.3-0.9,1.2-1.6,2.2-1.6c1.3,0,2.4,1.1,2.4,2.4s-1.1,2.4-2.4,2.4c-0.4,0-0.8,0.4-0.8,0.8
		c0,0.4,0.4,0.8,0.8,0.8c2.2,0,4-1.8,4-4s-1.8-4-4-4c-1.9,0-3.5,1.4-3.9,3.2H0v42h46v-42H34z M44.4,43.6H1.6V13.5h42.8V43.6z
		 M44.4,43.6"/>
	<path d="M20.6,1.6C21.9,1.6,23,2.7,23,4s-1.1,2.4-2.4,2.4c-0.4,0-0.8,0.4-0.8,0.8c0,0.4,0.4,0.8,0.8,0.8c2.2,0,4-1.8,4-4
		s-1.8-4-4-4c-0.4,0-0.8,0.4-0.8,0.8C19.8,1.2,20.2,1.6,20.6,1.6L20.6,1.6z M20.6,1.6"/>
	<path d="M25.4,1.6c1.3,0,2.4,1.1,2.4,2.4s-1.1,2.4-2.4,2.4c-0.4,0-0.8,0.4-0.8,0.8c0,0.4,0.4,0.8,0.8,0.8c2.2,0,4-1.8,4-4
		s-1.8-4-4-4c-0.4,0-0.8,0.4-0.8,0.8C24.6,1.2,24.9,1.6,25.4,1.6L25.4,1.6z M25.4,1.6"/>
	<path d="M18.2,19c0,0.4-0.4,0.8-0.8,0.8c-0.4,0-0.8-0.4-0.8-0.8c0-0.4,0.4-0.8,0.8-0.8C17.9,18.2,18.2,18.6,18.2,19L18.2,19z
		 M18.2,19"/>
	<path d="M23.8,19c0,0.4-0.4,0.8-0.8,0.8c-0.4,0-0.8-0.4-0.8-0.8c0-0.4,0.4-0.8,0.8-0.8C23.4,18.2,23.8,18.6,23.8,19L23.8,19z
		 M23.8,19"/>
	<path d="M29.3,19c0,0.4-0.4,0.8-0.8,0.8c-0.4,0-0.8-0.4-0.8-0.8c0-0.4,0.4-0.8,0.8-0.8C29,18.2,29.3,18.6,29.3,19L29.3,19z
		 M29.3,19"/>
	<path d="M34.9,19c0,0.4-0.4,0.8-0.8,0.8c-0.4,0-0.8-0.4-0.8-0.8c0-0.4,0.4-0.8,0.8-0.8C34.5,18.2,34.9,18.6,34.9,19L34.9,19z
		 M34.9,19"/>
	<path d="M40.4,19c0,0.4-0.4,0.8-0.8,0.8c-0.4,0-0.8-0.4-0.8-0.8c0-0.4,0.4-0.8,0.8-0.8C40.1,18.2,40.4,18.6,40.4,19L40.4,19z
		 M40.4,19"/>
	<path d="M7.1,25.4c0,0.4-0.4,0.8-0.8,0.8c-0.4,0-0.8-0.4-0.8-0.8c0-0.4,0.4-0.8,0.8-0.8C6.8,24.6,7.1,24.9,7.1,25.4L7.1,25.4z
		 M7.1,25.4"/>
	<path d="M12.7,25.4c0,0.4-0.4,0.8-0.8,0.8c-0.4,0-0.8-0.4-0.8-0.8c0-0.4,0.4-0.8,0.8-0.8C12.3,24.6,12.7,24.9,12.7,25.4L12.7,25.4z
		 M12.7,25.4"/>
	<path d="M18.2,25.4c0,0.4-0.4,0.8-0.8,0.8c-0.4,0-0.8-0.4-0.8-0.8c0-0.4,0.4-0.8,0.8-0.8C17.9,24.6,18.2,24.9,18.2,25.4L18.2,25.4z
		 M18.2,25.4"/>
	<path d="M23.8,25.4c0,0.4-0.4,0.8-0.8,0.8c-0.4,0-0.8-0.4-0.8-0.8c0-0.4,0.4-0.8,0.8-0.8C23.4,24.6,23.8,24.9,23.8,25.4L23.8,25.4z
		 M23.8,25.4"/>
	<path d="M29.3,25.4c0,0.4-0.4,0.8-0.8,0.8c-0.4,0-0.8-0.4-0.8-0.8c0-0.4,0.4-0.8,0.8-0.8C29,24.6,29.3,24.9,29.3,25.4L29.3,25.4z
		 M29.3,25.4"/>
	<path d="M34.9,25.4c0,0.4-0.4,0.8-0.8,0.8c-0.4,0-0.8-0.4-0.8-0.8c0-0.4,0.4-0.8,0.8-0.8C34.5,24.6,34.9,24.9,34.9,25.4L34.9,25.4z
		 M34.9,25.4"/>
	<path d="M40.4,25.4c0,0.4-0.4,0.8-0.8,0.8c-0.4,0-0.8-0.4-0.8-0.8c0-0.4,0.4-0.8,0.8-0.8C40.1,24.6,40.4,24.9,40.4,25.4L40.4,25.4z
		 M40.4,25.4"/>
	<path d="M7.1,30.9c0,0.4-0.4,0.8-0.8,0.8c-0.4,0-0.8-0.4-0.8-0.8c0-0.4,0.4-0.8,0.8-0.8C6.8,30.1,7.1,30.5,7.1,30.9L7.1,30.9z
		 M7.1,30.9"/>
	<path d="M12.7,30.9c0,0.4-0.4,0.8-0.8,0.8c-0.4,0-0.8-0.4-0.8-0.8c0-0.4,0.4-0.8,0.8-0.8C12.3,30.1,12.7,30.5,12.7,30.9L12.7,30.9z
		 M12.7,30.9"/>
	<path d="M18.2,30.9c0,0.4-0.4,0.8-0.8,0.8c-0.4,0-0.8-0.4-0.8-0.8c0-0.4,0.4-0.8,0.8-0.8C17.9,30.1,18.2,30.5,18.2,30.9L18.2,30.9z
		 M18.2,30.9"/>
	<path d="M23.8,30.9c0,0.4-0.4,0.8-0.8,0.8c-0.4,0-0.8-0.4-0.8-0.8c0-0.4,0.4-0.8,0.8-0.8C23.4,30.1,23.8,30.5,23.8,30.9L23.8,30.9z
		 M23.8,30.9"/>
	<path d="M29.3,30.9c0,0.4-0.4,0.8-0.8,0.8c-0.4,0-0.8-0.4-0.8-0.8c0-0.4,0.4-0.8,0.8-0.8C29,30.1,29.3,30.5,29.3,30.9L29.3,30.9z
		 M29.3,30.9"/>
	<path d="M34.9,30.9c0,0.4-0.4,0.8-0.8,0.8c-0.4,0-0.8-0.4-0.8-0.8c0-0.4,0.4-0.8,0.8-0.8C34.5,30.1,34.9,30.5,34.9,30.9L34.9,30.9z
		 M34.9,30.9"/>
	<path d="M40.4,30.9c0,0.4-0.4,0.8-0.8,0.8c-0.4,0-0.8-0.4-0.8-0.8c0-0.4,0.4-0.8,0.8-0.8C40.1,30.1,40.4,30.5,40.4,30.9L40.4,30.9z
		 M40.4,30.9"/>
	<path d="M7.1,37.3c0,0.4-0.4,0.8-0.8,0.8c-0.4,0-0.8-0.4-0.8-0.8c0-0.4,0.4-0.8,0.8-0.8C6.8,36.5,7.1,36.8,7.1,37.3L7.1,37.3z
		 M7.1,37.3"/>
	<path d="M12.7,37.3c0,0.4-0.4,0.8-0.8,0.8c-0.4,0-0.8-0.4-0.8-0.8c0-0.4,0.4-0.8,0.8-0.8C12.3,36.5,12.7,36.8,12.7,37.3L12.7,37.3z
		 M12.7,37.3"/>
	<path d="M18.2,37.3c0,0.4-0.4,0.8-0.8,0.8c-0.4,0-0.8-0.4-0.8-0.8c0-0.4,0.4-0.8,0.8-0.8C17.9,36.5,18.2,36.8,18.2,37.3L18.2,37.3z
		 M18.2,37.3"/>
	<path d="M23.8,37.3c0,0.4-0.4,0.8-0.8,0.8c-0.4,0-0.8-0.4-0.8-0.8c0-0.4,0.4-0.8,0.8-0.8C23.4,36.5,23.8,36.8,23.8,37.3L23.8,37.3z
		 M23.8,37.3"/>
	<path d="M29.3,37.3c0,0.4-0.4,0.8-0.8,0.8c-0.4,0-0.8-0.4-0.8-0.8c0-0.4,0.4-0.8,0.8-0.8C29,36.5,29.3,36.8,29.3,37.3L29.3,37.3z
		 M29.3,37.3"/>
</g>
</svg>
