<?xml version="1.0" encoding="utf-8"?>
<!-- Generator: Adobe Illustrator 19.0.1, SVG Export Plug-In . SVG Version: 6.00 Build 0)  -->
<svg version="1.1" id="Слой_1" xmlns="http://www.w3.org/2000/svg" xmlns:xlink="http://www.w3.org/1999/xlink" x="0px" y="0px"
	 viewBox="0 0 159 20.3" style="enable-background:new 0 0 159 20.3;" xml:space="preserve">
<path d="M26.2,0l-5.1,20.3h-4.7L13.1,6.9L9.9,20.3H5.2L0,0h4.9l2.8,12.4c0,0.1,0.1,0.3,0.2,0.7c0,0.1,0.1,0.3,0.2,0.6L11.3,0h4.4
	l3.4,13.7c0.1-0.3,0.2-0.7,0.3-1.3L22.3,0H26.2z"/>
<path d="M61.8,0v20.3h-4.1l-8-13.7c0,0.3,0,0.6,0,0.7c0,0.3,0.1,0.6,0.1,0.9v12.2h-3.7V0h5.1l6.9,12c-0.1-0.6-0.1-1-0.1-1.4V0H61.8z
	"/>
<path d="M81.5,0v20.3h-4.1l-8-13.7c0,0.3,0,0.6,0,0.7c0,0.3,0.1,0.6,0.1,0.9v12.2h-3.7V0H71l6.9,12c-0.1-0.6-0.1-1-0.1-1.4V0H81.5z"
	/>
<path d="M95.6,0l6.4,20.3h-5.1l-1.3-4.2H89l-1.3,4.2h-4.2L90,0H95.6z M90.1,12.4h4.3l-2.1-7.1L90.1,12.4z"/>
<path d="M126.3,3.9h-9.7V8h7.6v3.8h-7.6v4.4h9.7v4h-14.5V0h14.5V3.9z"/>
<path d="M139.1,0l6.4,20.3h-5.1l-1.3-4.2h-6.6l-1.3,4.2h-4.2L133.6,0H139.1z M133.7,12.4h4.3l-2.1-7.1L133.7,12.4z"/>
<path d="M159,0v4h-5v16.3h-4.8V4h-5.1V0H159z"/>
<path d="M37.6,0h-5.5l-6.5,20.3h4.2h4.4l0.2-1.9c0.1-0.9-0.4-1.8-1.2-2.2c-1-0.5-1.7-1.6-1.7-3.6c0-3,1.9-7,3.4-7
	c1.5,0,3.4,3.9,3.4,7c0,2-0.7,3.1-1.7,3.6c-0.8,0.4-1.3,1.3-1.2,2.2l0.2,1.9h3.2h5.1L37.6,0z"/>
</svg>
