<?xml version="1.0" encoding="utf-8"?>
<!-- Generator: Adobe Illustrator 19.0.1, SVG Export Plug-In . SVG Version: 6.00 Build 0)  -->
<svg version="1.1" id="Слой_1" xmlns="http://www.w3.org/2000/svg" xmlns:xlink="http://www.w3.org/1999/xlink" x="0px" y="0px"
	 viewBox="0 0 49.3 45.2" style="enable-background:new 0 0 49.3 45.2;" xml:space="preserve">
<g>
	<path d="M45.2,35.2l-7.9-3.9c-0.7-0.4-1.2-1.1-1.2-1.9v-2.8c0.2-0.2,0.4-0.5,0.6-0.8c1-1.4,1.8-3,2.4-4.8c1.2-0.5,1.9-1.7,1.9-3
		v-3.3c0-0.8-0.3-1.6-0.8-2.2V8.3c0-0.4,0.2-3.1-1.7-5.4C36.9,1,34.1,0,30.4,0c-3.7,0-6.5,1-8.1,2.9c-1.2,1.3-1.6,2.9-1.7,3.9
		c-1.4-0.7-3.1-1.1-5-1.1c-8.5,0-9,7.3-9,7.4v3.8c-0.5,0.6-0.8,1.2-0.8,1.9v2.8c0,0.9,0.4,1.7,1.1,2.3c0.7,2.6,2.3,4.5,3,5.2v2.3
		c0,0.7-0.3,1.2-1,1.6l-5.5,3.4C1.3,37.5,0,39.7,0,42.1v3.1h49.3v-3.3C49.3,39.1,47.7,36.5,45.2,35.2L45.2,35.2z M11.5,41.7v1.8H1.6
		v-1.5c0-1.8,1-3.4,2.6-4.3l5.5-3.4c1.1-0.6,1.8-1.7,1.8-3v-2.9l-0.3-0.2c0,0-2.2-2.1-2.9-4.9l-0.1-0.3L8,22.8
		c-0.4-0.2-0.6-0.7-0.6-1.1v-2.8c0-0.3,0.2-0.7,0.6-1l0.3-0.2v-4.4c0-0.2,0.4-5.8,7.4-5.8c2,0,3.6,0.5,4.9,1.4v3.9
		c-0.5,0.6-0.8,1.4-0.8,2.2v3.3c0,0.2,0,0.5,0.1,0.7c0,0.1,0.1,0.2,0.1,0.3c0,0.1,0.1,0.3,0.1,0.4c0,0,0,0,0,0
		c0.2,0.4,0.5,0.8,0.9,1.1c0,0,0,0,0,0c0,0.2,0.1,0.4,0.2,0.6l0.1,0.2c0,0,0,0.1,0,0.1c0,0.1,0.1,0.2,0.1,0.3c0,0.1,0.1,0.3,0.2,0.5
		c0,0.1,0.1,0.1,0.1,0.2c0.1,0.2,0.1,0.3,0.2,0.5c0,0,0,0.1,0,0.1l0,0.1c0,0,0,0.1,0.1,0.1c0.1,0.2,0.2,0.3,0.2,0.5c0,0,0,0.1,0,0.1
		c0.1,0.1,0.1,0.2,0.2,0.3c0.1,0.2,0.2,0.3,0.3,0.5c0,0.1,0.1,0.1,0.1,0.2c0.1,0.2,0.2,0.4,0.3,0.6c0,0,0,0.1,0.1,0.1
		c0.2,0.3,0.4,0.6,0.5,0.8c0,0,0.1,0.1,0.1,0.1c0,0,0,0.1,0.1,0.1v2.7c0,0.8-0.4,1.5-1.1,1.9l-2.2,1.2l-0.4,0L20,32.7l-4.6,2.5
		C13,36.5,11.5,39,11.5,41.7L11.5,41.7z M47.7,43.6H13.1v-1.8c0-2.1,1.2-4.1,3-5.1l7.3-4c1.2-0.7,2-2,2-3.4V26l-0.2-0.2l0,0
		c0,0-0.1-0.1-0.1-0.2c0,0,0,0,0,0c0-0.1-0.1-0.1-0.2-0.2c0,0,0,0,0,0c-0.1-0.2-0.3-0.4-0.4-0.7c0,0,0,0,0,0
		c-0.1-0.1-0.2-0.3-0.3-0.4c0,0,0,0,0,0c-0.2-0.3-0.4-0.7-0.6-1.1c0,0,0,0,0,0c-0.1-0.2-0.2-0.4-0.3-0.7c0,0,0-0.1,0-0.1
		c0-0.1-0.1-0.2-0.1-0.3c0,0,0-0.1,0-0.1c0-0.1-0.1-0.2-0.1-0.3c-0.1-0.2-0.2-0.5-0.2-0.7l0-0.1c0,0,0,0,0-0.1
		c-0.1-0.3-0.2-0.5-0.2-0.8l-0.1-0.3l-0.3-0.2c-0.5-0.3-0.8-0.8-0.8-1.4v-3.3c0-0.5,0.2-0.9,0.5-1.2l0.3-0.2V7.9l0,0
		c0-0.6,0-2.4,1.3-3.9c1.4-1.6,3.7-2.3,6.9-2.3c3.2,0,5.5,0.8,6.9,2.3c1.6,1.8,1.3,4.1,1.3,4.1l0,5.2l0.3,0.2
		c0.4,0.3,0.5,0.7,0.5,1.2v3.3c0,0.7-0.5,1.3-1.2,1.6l-0.4,0.1l-0.1,0.4c-0.5,1.7-1.3,3.3-2.3,4.7c-0.2,0.3-0.5,0.7-0.7,0.9L34.5,26
		v3.4c0,1.5,0.8,2.8,2.1,3.4l7.9,3.9c2,1,3.2,3,3.2,5.2V43.6z M47.7,43.6"/>
</g>
</svg>
