<?xml version="1.0" encoding="utf-8"?>
<!-- Generator: Adobe Illustrator 19.0.1, SVG Export Plug-In . SVG Version: 6.00 Build 0)  -->
<svg version="1.1" id="Слой_1" xmlns="http://www.w3.org/2000/svg" xmlns:xlink="http://www.w3.org/1999/xlink" x="0px" y="0px"
	 viewBox="0 0 59.3 45" style="enable-background:new 0 0 59.3 45;" xml:space="preserve">
<g>
	<g>
		<path d="M58.5,4.1h-2.6l1.5-2.9c0.1-0.3,0.1-0.6,0-0.8C57.2,0.2,56.9,0,56.6,0H38.9c-0.3,0-0.6,0.2-0.7,0.4C38,0.6,38,1,38.1,1.2
			l1.5,2.9H19.7l1.5-2.9c0.1-0.3,0.1-0.6,0-0.8C21,0.2,20.7,0,20.4,0H2.7C2.4,0,2.1,0.2,2,0.4C1.8,0.6,1.8,1,2,1.2l1.5,2.9H0.8
			C0.4,4.1,0,4.5,0,4.9v8.8c0,0.5,0.4,0.8,0.8,0.8h1.8l1.8,29.7c0,0.4,0.4,0.8,0.8,0.8h4.6c0.5,0,0.8-0.4,0.8-0.8V14.5h5l3.1,3.1
			c0.2,0.2,0.4,0.2,0.6,0.2c0.2,0,0.4-0.1,0.6-0.2l3.1-3.1H35l5.9,5.9c0.2,0.2,0.4,0.2,0.6,0.2c0.2,0,0.4-0.1,0.6-0.2l5.9-5.9h0.6
			v29.6c0,0.5,0.4,0.8,0.8,0.8H54c0.4,0,0.8-0.3,0.8-0.8l1.8-29.7h1.8c0.5,0,0.8-0.4,0.8-0.8V4.9C59.3,4.5,58.9,4.1,58.5,4.1
			L58.5,4.1z M55.2,1.7L54,4.1H41.5l-1.2-2.4H55.2z M19,1.7l-1.2,2.4H5.3L4.1,1.7H19z M9.1,43.3h-3L4.3,14.5h4.7V43.3z M1.7,12.9
			V5.8H7l7.1,7.1H1.7z M19.4,15.8L9.3,5.8h20.2L19.4,15.8z M41.5,18.6l-4.1-4.1h8.2L41.5,18.6z M53.2,43.3h-3V14.5h4.7L53.2,43.3z
			 M57.6,12.9H24.8l7.1-7.1h25.7V12.9z M57.6,12.9"/>
	</g>
</g>
</svg>
