<?xml version="1.0" encoding="utf-8"?>
<!-- Generator: Adobe Illustrator 19.0.1, SVG Export Plug-In . SVG Version: 6.00 Build 0)  -->
<svg version="1.1" id="Слой_1" xmlns="http://www.w3.org/2000/svg" xmlns:xlink="http://www.w3.org/1999/xlink" x="0px" y="0px"
	 viewBox="0 0 34.2 45.3" style="enable-background:new 0 0 34.2 45.3;" xml:space="preserve">
<g>
	<path d="M30.5,32.4l-7.1-3.6c-0.7-0.3-1.1-1-1.1-1.8v-2.5c0.2-0.2,0.3-0.5,0.5-0.7c0.9-1.3,1.7-2.8,2.2-4.4c1-0.5,1.7-1.5,1.7-2.7
		v-3c0-0.7-0.3-1.4-0.7-2v-4c0-0.4,0.2-2.9-1.6-4.9c-1.5-1.8-4-2.7-7.4-2.7c-3.4,0-5.8,0.9-7.4,2.7C8,4.7,8.1,7.2,8.2,7.6v4
		c-0.5,0.5-0.7,1.3-0.7,2v3c0,0.9,0.4,1.8,1.1,2.3c0.7,2.7,2.1,4.8,2.6,5.5v2.5c0,0.7-0.4,1.4-1,1.8l-6.6,3.7
		c-2.2,1.2-3.5,3.5-3.5,6v2.4c0,3.6,11.2,4.5,17.1,4.5c5.9,0,17.1-0.9,17.1-4.5v-2.3C34.2,35.9,32.8,33.5,30.5,32.4L30.5,32.4z
		 M32.7,40.8"/>
</g>
</svg>
