<?xml version="1.0" encoding="utf-8"?>
<!-- Generator: Adobe Illustrator 19.0.1, SVG Export Plug-In . SVG Version: 6.00 Build 0)  -->
<svg version="1.1" id="Слой_1" xmlns="http://www.w3.org/2000/svg" xmlns:xlink="http://www.w3.org/1999/xlink" x="0px" y="0px"
	 viewBox="0 0 34.2 45.3" style="enable-background:new 0 0 34.2 45.3;" xml:space="preserve">
<g>
	<path d="M30.5,32.4l-7.1-3.6c-0.7-0.3-1.1-1-1.1-1.8v-2.5c0.2-0.2,0.3-0.5,0.5-0.7c0.9-1.3,1.7-2.8,2.2-4.4c1-0.5,1.7-1.5,1.7-2.7
		v-3c0-0.7-0.3-1.4-0.7-2v-4c0-0.4,0.2-2.9-1.6-4.9c-1.5-1.8-4-2.7-7.4-2.7c-3.4,0-5.8,0.9-7.4,2.7C8,4.7,8.1,7.2,8.2,7.6v4
		c-0.5,0.5-0.7,1.3-0.7,2v3c0,0.9,0.4,1.8,1.1,2.3c0.7,2.7,2.1,4.8,2.6,5.5v2.5c0,0.7-0.4,1.4-1,1.8l-6.6,3.7
		c-2.2,1.2-3.5,3.5-3.5,6v2.4c0,3.6,11.2,4.5,17.1,4.5c5.9,0,17.1-0.9,17.1-4.5v-2.3C34.2,35.9,32.8,33.5,30.5,32.4L30.5,32.4z
		 M32.7,40.8c0,1-5.5,3-15.6,3c-10.1,0-15.6-2-15.6-3v-2.4c0-1.9,1-3.7,2.7-4.6l6.6-3.7c1.1-0.6,1.8-1.8,1.8-3.1v-3l-0.2-0.2
		c0,0-1.8-2.3-2.5-5.3L9.9,18l-0.3-0.2c-0.4-0.3-0.7-0.8-0.7-1.3v-3c0-0.4,0.2-0.8,0.5-1.1l0.2-0.2V7.5l0-0.1c0,0-0.3-2.1,1.2-3.8
		c1.2-1.4,3.3-2.1,6.2-2.1c2.9,0,5,0.7,6.2,2.1c1.4,1.7,1.2,3.8,1.2,3.8l0,4.8l0.2,0.2c0.3,0.3,0.5,0.7,0.5,1.1v3
		c0,0.7-0.4,1.2-1.1,1.4l-0.4,0.1l-0.1,0.4c-0.5,1.6-1.2,3-2.1,4.3c-0.2,0.3-0.4,0.6-0.6,0.8l-0.2,0.2V27c0,1.3,0.7,2.5,1.9,3.1
		l7.1,3.6c1.8,0.9,2.9,2.7,2.9,4.7V40.8z M32.7,40.8"/>
</g>
</svg>
